<svg width="1306" height="3871" viewBox="0 0 1306 3871" fill="none" xmlns="http://www.w3.org/2000/svg">
<path d="M0.5 3H284.5C315.428 3 340.5 28.0721 340.5 59V531.5C340.5 562.428 365.572 587.5 396.5 587.5H1246C1276.93 587.5 1302 612.572 1302 643.5V1641.5C1302 1672.43 1276.93 1697.5 1246 1697.5H396.5C365.572 1697.5 340.5 1722.57 340.5 1753.5V2655.5C340.5 2686.43 365.572 2711.5 396.5 2711.5H1246C1276.93 2711.5 1302 2736.57 1302 2767.5V3073" stroke="#B9B9B9" stroke-width="5"/>
<path d="M1303 3323V3710.5C1303 3741.43 1277.93 3766.5 1247 3766.5H817.5C786.572 3766.5 761.5 3791.57 761.5 3822.5V3871" stroke="#B9B9B9" stroke-width="5"/>
</svg>
