<svg width="8" height="20" viewBox="0 0 8 20" fill="none" xmlns="http://www.w3.org/2000/svg">
<path d="M7.64471 0.506688C7.75733 0.666257 7.84669 0.855795 7.90765 1.06445C7.96862 1.27311 8 1.49679 8 1.72269C8 1.94858 7.96862 2.17226 7.90765 2.38092C7.84669 2.58958 7.75733 2.77912 7.64471 2.93869L2.93089 9.63099L7.64471 16.3233C7.87187 16.6458 7.99949 17.0832 7.99949 17.5393C7.99949 17.9954 7.87187 18.4328 7.64471 18.7553C7.41755 19.0778 7.10945 19.259 6.7882 19.259C6.46695 19.259 6.15886 19.0778 5.9317 18.7553L0.35529 10.8384C0.242664 10.6788 0.153311 10.4893 0.0923452 10.2806C0.0313797 10.0719 0 9.84827 0 9.62237C0 9.39647 0.0313797 9.17279 0.0923452 8.96414C0.153311 8.75548 0.242664 8.56594 0.35529 8.40637L5.9317 0.489439C6.39336 -0.165993 7.1709 -0.165993 7.64471 0.506688Z" fill="#A9A9A9" fill-opacity="0.73"/>
</svg>
