<svg width="8" height="20" viewBox="0 0 8 20" fill="none" xmlns="http://www.w3.org/2000/svg">
<path d="M0.355291 0.506688C0.242666 0.666257 0.153312 0.855795 0.0923468 1.06445C0.0313812 1.27311 0 1.49679 0 1.72269C0 1.94858 0.0313812 2.17226 0.0923468 2.38092C0.153312 2.58958 0.242666 2.77912 0.355291 2.93869L5.06911 9.63099L0.355291 16.3233C0.128132 16.6458 0.000514428 17.0832 0.000514428 17.5393C0.000514428 17.9954 0.128132 18.4328 0.355291 18.7553C0.582451 19.0778 0.890546 19.259 1.2118 19.259C1.53305 19.259 1.84114 19.0778 2.0683 18.7553L7.64471 10.8384C7.75734 10.6788 7.84669 10.4893 7.90765 10.2806C7.96862 10.0719 8 9.84827 8 9.62237C8 9.39647 7.96862 9.17279 7.90765 8.96414C7.84669 8.75548 7.75734 8.56594 7.64471 8.40637L2.0683 0.489439C1.60664 -0.165993 0.829104 -0.165993 0.355291 0.506688Z" fill="#A9A9A9" fill-opacity="0.73"/>
</svg>
