<svg width="45" height="48" viewBox="0 0 45 48" fill="none" xmlns="http://www.w3.org/2000/svg">
<path d="M17.1711 48L13.1447 40.8H5.32895L0 31.2L4.02632 24L0 16.8L5.32895 7.2H13.1447L17.1711 0H27.8289L31.8553 7.2H39.6711L45 16.8L40.9737 24L45 31.2L39.6711 40.8H31.8553L27.8289 48H17.1711ZM31.8553 21.6H36.9474L39.5526 16.8L36.9474 12H31.8553L29.1908 16.8L31.8553 21.6ZM20.0132 28.8H24.9868L27.6513 24L24.9868 19.2H20.0132L17.3487 24L20.0132 28.8ZM20.0132 14.4H24.9868L27.7105 9.54L25.0461 4.8H19.9539L17.2895 9.54L20.0132 14.4ZM8.11184 21.6H13.1447L15.8092 16.8L13.1447 12H8.11184L5.44737 16.8L8.11184 21.6ZM8.11184 36H13.1447L15.8092 31.2L13.1447 26.4H8.05263L5.44737 31.2L8.11184 36ZM19.9539 43.2H25.0461L27.7105 38.46L24.9868 33.6H20.0132L17.2895 38.46L19.9539 43.2ZM31.8553 36H36.8882L39.5526 31.2L36.8882 26.4H31.8553L29.1908 31.2L31.8553 36Z" fill="black"/>
</svg>
