<svg width="22" height="24" viewBox="0 0 22 24" fill="none" xmlns="http://www.w3.org/2000/svg">
<path d="M9.81818 2.18182L3.35455 5.91818L9.81818 9.65455L16.2818 5.91818L9.81818 2.18182ZM0 15.2455V6.57273C0 6.17273 0.0954545 5.80909 0.286364 5.48182C0.477273 5.15455 0.745455 4.89091 1.09091 4.69091L8.72727 0.3C8.90909 0.209091 9.08636 0.136364 9.25909 0.0818182C9.43182 0.0272727 9.61818 0 9.81818 0C10.0182 0 10.2091 0.0272727 10.3909 0.0818182C10.5727 0.136364 10.7455 0.209091 10.9091 0.3L18.5455 4.69091C18.8909 4.89091 19.1591 5.15455 19.35 5.48182C19.5409 5.80909 19.6364 6.17273 19.6364 6.57273V10.9091H17.4545V7.74545L9.79091 12.1636L2.18182 7.74545V15.2182L8.72727 19.0091V21.5182L1.09091 17.1273C0.745455 16.9273 0.477273 16.6636 0.286364 16.3364C0.0954545 16.0091 0 15.6455 0 15.2455ZM16.3636 21.8182C16.5091 21.8182 16.6364 21.7636 16.7455 21.6545C16.8545 21.5455 16.9091 21.4182 16.9091 21.2727C16.9091 21.1273 16.8545 21 16.7455 20.8909C16.6364 20.7818 16.5091 20.7273 16.3636 20.7273C16.2182 20.7273 16.0909 20.7818 15.9818 20.8909C15.8727 21 15.8182 21.1273 15.8182 21.2727C15.8182 21.4182 15.8727 21.5455 15.9818 21.6545C16.0909 21.7636 16.2182 21.8182 16.3636 21.8182ZM15.8182 19.6364H16.9091V15.2727H15.8182V19.6364ZM16.3636 24C14.8545 24 13.5682 23.4682 12.5045 22.4045C11.4409 21.3409 10.9091 20.0545 10.9091 18.5455C10.9091 17.0364 11.4409 15.75 12.5045 14.6864C13.5682 13.6227 14.8545 13.0909 16.3636 13.0909C17.8727 13.0909 19.1591 13.6227 20.2227 14.6864C21.2864 15.75 21.8182 17.0364 21.8182 18.5455C21.8182 20.0545 21.2864 21.3409 20.2227 22.4045C19.1591 23.4682 17.8727 24 16.3636 24Z" fill="black"/>
</svg>
