<svg width="390" height="1112" viewBox="0 0 390 1112" fill="none" xmlns="http://www.w3.org/2000/svg">
<path d="M1164.82 232.381L269.29 2.00001L-796.366 300.019" stroke="#CFD2D3" stroke-width="2.5" stroke-miterlimit="10"/>
<path d="M1165.13 252.637L262.723 23.7225L-796.466 320.807" stroke="#CFD2D3" stroke-width="2.2" stroke-miterlimit="10"/>
<path d="M1165.44 272.903L256.157 45.4348L-796.556 341.586" stroke="#CFD2D3" stroke-width="2.2" stroke-miterlimit="10"/>
<path d="M1165.75 293.16L249.601 67.1574L-796.647 362.374" stroke="#CFD2D3" stroke-width="2.2" stroke-miterlimit="10"/>
<path d="M1166.07 313.426L243.035 88.8799L-796.737 383.163" stroke="#CFD2D3" stroke-width="2.2" stroke-miterlimit="10"/>
<path d="M1166.38 333.692L236.469 110.602L-796.837 403.951" stroke="#CFD2D3" stroke-width="2.2" stroke-miterlimit="10"/>
<path d="M1166.69 353.949L229.902 132.325L-796.928 424.74" stroke="#CFD2D3" stroke-width="2.2" stroke-miterlimit="10"/>
<path d="M1167 374.215L223.336 154.047L-797.018 445.528" stroke="#CFD2D3" stroke-width="2" stroke-miterlimit="10"/>
<path d="M1167.32 394.471L216.78 175.77L-797.119 466.317" stroke="#CFD2D3" stroke-width="2" stroke-miterlimit="10"/>
<path d="M1167.64 414.737L210.214 197.492L-797.209 487.095" stroke="#CFD2D3" stroke-width="2" stroke-miterlimit="10"/>
<path d="M1167.95 435.004L203.647 219.215L-797.3 507.884" stroke="#CFD2D3" stroke-width="2" stroke-miterlimit="10"/>
<path d="M1168.26 455.26L197.081 240.927L-797.389 528.672" stroke="#CFD2D3" stroke-width="2" stroke-miterlimit="10"/>
<path d="M1168.57 475.526L190.525 262.65L-797.49 549.461" stroke="#CFD2D3" stroke-width="3.61" stroke-miterlimit="10"/>
<path d="M1168.88 495.783L183.959 284.372L-797.58 570.249" stroke="#CFD2D3" stroke-width="3.55" stroke-miterlimit="10"/>
<path d="M1169.2 516.049L177.393 306.095L-797.671 591.038" stroke="#CFD2D3" stroke-width="3.48" stroke-miterlimit="10"/>
<path d="M1169.51 536.315L170.826 327.817L-797.771 611.826" stroke="#CFD2D3" stroke-width="3.42" stroke-miterlimit="10"/>
<path d="M1169.83 556.571L164.27 349.54L-797.862 632.605" stroke="#CFD2D3" stroke-width="3.35" stroke-miterlimit="10"/>
<path d="M1170.14 576.838L157.704 371.262L-797.952 653.394" stroke="#CFD2D3" stroke-width="3.29" stroke-miterlimit="10"/>
<path d="M1170.45 597.094L151.138 392.985L-798.042 674.182" stroke="#CFD2D3" stroke-width="3.22" stroke-miterlimit="10"/>
<path d="M1170.77 617.36L144.571 414.707L-798.143 694.971" stroke="#CFD2D3" stroke-width="3.16" stroke-miterlimit="10"/>
<path d="M1171.08 637.627L138.006 436.42L-798.233 715.759" stroke="#CFD2D3" stroke-width="3.1" stroke-miterlimit="10"/>
<path d="M1171.39 657.883L131.449 458.142L-798.323 736.548" stroke="#CFD2D3" stroke-width="3.03" stroke-miterlimit="10"/>
<path d="M1171.7 678.149L124.883 479.865L-798.424 757.326" stroke="#CFD2D3" stroke-width="2.97" stroke-miterlimit="10"/>
<path d="M1172.02 698.405L118.317 501.587L-798.514 778.115" stroke="#CFD2D3" stroke-width="2.9" stroke-miterlimit="10"/>
<path d="M1172.34 718.672L111.751 523.31L-798.605 798.903" stroke="#CFD2D3" stroke-width="2.84" stroke-miterlimit="10"/>
<path d="M1172.65 738.938L105.194 545.032L-798.695 819.692" stroke="#CFD2D3" stroke-width="2.77" stroke-miterlimit="10"/>
<path d="M1172.96 759.194L98.6282 566.755L-798.795 840.48" stroke="#CFD2D3" stroke-width="2.71" stroke-miterlimit="10"/>
<path d="M1173.27 779.46L92.0619 588.477L-798.886 861.269" stroke="#CFD2D3" stroke-width="2.64" stroke-miterlimit="10"/>
<path d="M1173.59 799.717L85.4955 610.2L-798.976 882.057" stroke="#CFD2D3" stroke-width="2.58" stroke-miterlimit="10"/>
<path d="M1173.9 819.983L78.9397 631.912L-799.076 902.836" stroke="#CFD2D3" stroke-width="2.51" stroke-miterlimit="10"/>
<path d="M1174.21 840.249L72.3732 653.635L-799.167 923.624" stroke="#CFD2D3" stroke-width="2.45" stroke-miterlimit="10"/>
<path d="M1174.52 860.506L65.8074 675.357L-799.257 944.413" stroke="#CFD2D3" stroke-width="2.39" stroke-miterlimit="10"/>
<path d="M1174.84 880.772L59.2409 697.08L-799.348 965.201" stroke="#CFD2D3" stroke-width="2.32" stroke-miterlimit="10"/>
<path d="M1175.16 901.028L52.6747 718.802L-799.448 985.99" stroke="#CFD2D3" stroke-width="2.26" stroke-miterlimit="10"/>
<path d="M1175.47 921.294L46.1183 740.525L-799.538 1006.78" stroke="#CFD2D3" stroke-width="2.19" stroke-miterlimit="10"/>
<path d="M1175.78 941.561L39.5523 762.247L-799.629 1027.57" stroke="#CFD2D3" stroke-width="2.13" stroke-miterlimit="10"/>
<path d="M1176.09 961.817L32.9859 783.97L-799.729 1048.35" stroke="#CFD2D3" stroke-width="2.06" stroke-miterlimit="10"/>
<path d="M1176.4 982.083L26.42 805.692L-799.819 1069.13" stroke="#CFD2D3" stroke-width="2" stroke-miterlimit="10"/>
<path d="M1176.72 1002.34L19.8637 827.404L-799.91 1089.92" stroke="#CFD2D3" stroke-width="1.93" stroke-miterlimit="10"/>
<path d="M1177.03 1022.61L13.2974 849.127L-800 1110.71" stroke="#CFD2D3" stroke-width="1.87" stroke-miterlimit="10"/>
</svg>
