<svg width="1920" height="1113" viewBox="0 0 1920 1113" fill="none" xmlns="http://www.w3.org/2000/svg">
<path d="M1948.94 233.381L1053.41 2.99953L-12.2415 301.018" stroke="#CFD2D3" stroke-width="4.38" stroke-miterlimit="10"/>
<path d="M1949.25 253.637L1046.85 24.722L-12.3429 321.807" stroke="#CFD2D3" stroke-width="4.32" stroke-miterlimit="10"/>
<path d="M1949.56 273.903L1040.28 46.4343L-12.4318 342.585" stroke="#CFD2D3" stroke-width="4.26" stroke-miterlimit="10"/>
<path d="M1949.87 294.159L1033.72 68.1569L-12.5227 363.374" stroke="#CFD2D3" stroke-width="4.19" stroke-miterlimit="10"/>
<path d="M1950.2 314.426L1027.16 89.8794L-12.6121 384.162" stroke="#CFD2D3" stroke-width="4.13" stroke-miterlimit="10"/>
<path d="M1950.51 334.692L1020.59 111.602L-12.7133 404.951" stroke="#CFD2D3" stroke-width="4.06" stroke-miterlimit="10"/>
<path d="M1950.82 354.948L1014.03 133.324L-12.8044 425.739" stroke="#CFD2D3" stroke-width="4" stroke-miterlimit="10"/>
<path d="M1951.13 375.214L1007.46 155.047L-12.8934 446.528" stroke="#CFD2D3" stroke-width="3.93" stroke-miterlimit="10"/>
<path d="M1951.44 395.471L1000.9 176.769L-12.9947 467.316" stroke="#CFD2D3" stroke-width="3.87" stroke-miterlimit="10"/>
<path d="M1951.76 415.737L994.337 198.492L-13.0859 488.095" stroke="#CFD2D3" stroke-width="3.8" stroke-miterlimit="10"/>
<path d="M1952.07 436.003L987.772 220.214L-13.175 508.883" stroke="#CFD2D3" stroke-width="3.74" stroke-miterlimit="10"/>
<path d="M1952.38 456.26L981.205 241.927L-13.266 529.672" stroke="#CFD2D3" stroke-width="3.68" stroke-miterlimit="10"/>
<path d="M1952.7 476.526L974.65 263.649L-13.3651 550.46" stroke="#CFD2D3" stroke-width="3.61" stroke-miterlimit="10"/>
<path d="M1953.01 496.782L968.083 285.372L-13.4562 571.249" stroke="#CFD2D3" stroke-width="3.55" stroke-miterlimit="10"/>
<path d="M1953.33 517.048L961.516 307.094L-13.5476 592.038" stroke="#CFD2D3" stroke-width="3.48" stroke-miterlimit="10"/>
<path d="M1953.64 537.315L954.951 328.817L-13.6466 612.826" stroke="#CFD2D3" stroke-width="3.42" stroke-miterlimit="10"/>
<path d="M1953.95 557.571L948.394 350.539L-13.7377 633.605" stroke="#CFD2D3" stroke-width="3.35" stroke-miterlimit="10"/>
<path d="M1954.26 577.837L941.827 372.262L-13.8288 654.393" stroke="#CFD2D3" stroke-width="3.29" stroke-miterlimit="10"/>
<path d="M1954.57 598.093L935.262 393.984L-13.9179 675.181" stroke="#CFD2D3" stroke-width="3.22" stroke-miterlimit="10"/>
<path d="M1954.89 618.36L928.695 415.707L-14.0192 695.97" stroke="#CFD2D3" stroke-width="3.16" stroke-miterlimit="10"/>
<path d="M1955.21 638.626L922.13 437.419L-14.1083 716.759" stroke="#CFD2D3" stroke-width="3.1" stroke-miterlimit="10"/>
<path d="M1955.52 658.882L915.573 459.142L-14.1994 737.547" stroke="#CFD2D3" stroke-width="3.03" stroke-miterlimit="10"/>
<path d="M1955.83 679.149L909.006 480.864L-14.3006 758.326" stroke="#CFD2D3" stroke-width="2.97" stroke-miterlimit="10"/>
<path d="M1956.15 699.405L902.441 502.587L-14.3898 779.114" stroke="#CFD2D3" stroke-width="2.9" stroke-miterlimit="10"/>
<path d="M1956.46 719.671L895.874 524.309L-14.481 799.903" stroke="#CFD2D3" stroke-width="2.84" stroke-miterlimit="10"/>
<path d="M1956.77 739.937L889.319 546.032L-14.5703 820.691" stroke="#CFD2D3" stroke-width="2.77" stroke-miterlimit="10"/>
<path d="M1957.08 760.194L882.752 567.754L-14.6712 841.48" stroke="#CFD2D3" stroke-width="2.71" stroke-miterlimit="10"/>
<path d="M1957.39 780.46L876.185 589.477L-14.7621 862.268" stroke="#CFD2D3" stroke-width="2.64" stroke-miterlimit="10"/>
<path d="M1957.71 800.716L869.62 611.199L-14.8519 883.057" stroke="#CFD2D3" stroke-width="2.58" stroke-miterlimit="10"/>
<path d="M1958.03 820.983L863.063 632.912L-14.9527 903.835" stroke="#CFD2D3" stroke-width="2.51" stroke-miterlimit="10"/>
<path d="M1958.34 841.249L856.498 654.634L-15.0418 924.624" stroke="#CFD2D3" stroke-width="2.45" stroke-miterlimit="10"/>
<path d="M1958.65 861.505L849.931 676.357L-15.1328 945.412" stroke="#CFD2D3" stroke-width="2.39" stroke-miterlimit="10"/>
<path d="M1958.96 881.771L843.364 698.079L-15.224 966.201" stroke="#CFD2D3" stroke-width="2.32" stroke-miterlimit="10"/>
<path d="M1959.28 902.027L836.799 719.801L-15.3233 986.989" stroke="#CFD2D3" stroke-width="2.26" stroke-miterlimit="10"/>
<path d="M1959.59 922.294L830.242 741.524L-15.4144 1007.78" stroke="#CFD2D3" stroke-width="2.19" stroke-miterlimit="10"/>
<path d="M1959.9 942.56L823.675 763.247L-15.5056 1028.57" stroke="#CFD2D3" stroke-width="2.13" stroke-miterlimit="10"/>
<path d="M1960.21 962.817L817.11 784.969L-15.6047 1049.34" stroke="#CFD2D3" stroke-width="2.06" stroke-miterlimit="10"/>
<path d="M1960.53 983.083L810.544 806.691L-15.6957 1070.13" stroke="#CFD2D3" stroke-width="2" stroke-miterlimit="10"/>
<path d="M1960.85 1003.34L803.988 828.404L-15.7853 1090.92" stroke="#CFD2D3" stroke-width="1.93" stroke-miterlimit="10"/>
<path d="M1961.16 1023.61L797.421 850.127L-15.876 1111.71" stroke="#CFD2D3" stroke-width="1.87" stroke-miterlimit="10"/>
</svg>
