<svg width="24" height="17" viewBox="0 0 24 17" fill="none" xmlns="http://www.w3.org/2000/svg">
<path d="M21.6423 7.07796C22.9441 5.77495 22.9441 3.66234 21.6423 2.35932C20.3405 1.0563 18.2298 1.0563 16.928 2.35932L9.85672 9.43728C8.55492 10.7403 8.55492 12.8529 9.85672 14.1559C11.1585 15.4589 13.2691 15.4589 14.5709 14.1559L21.6423 7.07796Z" fill="#D9D9D9"/>
<path d="M21.6423 7.07796C22.9441 5.77495 22.9441 3.66234 21.6423 2.35932C20.3405 1.0563 18.2298 1.0563 16.928 2.35932L9.85672 9.43728C8.55492 10.7403 8.55492 12.8529 9.85672 14.1559C11.1585 15.4589 13.2691 15.4589 14.5709 14.1559L21.6423 7.07796Z" fill="black"/>
<path d="M2.357 7.07796C1.05521 5.77495 1.05521 3.66234 2.357 2.35932C3.6588 1.0563 5.76943 1.0563 7.07122 2.35932L14.1426 9.43728C15.4443 10.7403 15.4443 12.8529 14.1426 14.1559C12.8408 15.4589 10.7301 15.4589 9.42833 14.1559L2.357 7.07796Z" fill="#D9D9D9"/>
<path d="M2.357 7.07796C1.05521 5.77495 1.05521 3.66234 2.357 2.35932C3.6588 1.0563 5.76943 1.0563 7.07122 2.35932L14.1426 9.43728C15.4443 10.7403 15.4443 12.8529 14.1426 14.1559C12.8408 15.4589 10.7301 15.4589 9.42833 14.1559L2.357 7.07796Z" fill="black"/>
</svg>
