<svg width="28" height="41" viewBox="0 0 28 41" fill="none" xmlns="http://www.w3.org/2000/svg">
<path d="M26 14.0113C26 7.37762 20.6274 2 14 2C7.37258 2 2 7.37762 2 14.0113V27.1849C2 33.8185 7.37258 39.1961 14 39.1961C20.6274 39.1961 26 33.8185 26 27.1849V14.0113Z" stroke="#D9D9D9" stroke-width="2.67857"/>
<path d="M26 14.0113C26 7.37762 20.6274 2 14 2C7.37258 2 2 7.37762 2 14.0113V27.1849C2 33.8185 7.37258 39.1961 14 39.1961C20.6274 39.1961 26 33.8185 26 27.1849V14.0113Z" stroke="black" stroke-width="2.67857"/>
<path d="M14 8.33327C14.7811 8.33327 15.4145 8.96708 15.4145 9.74918V14.3987C15.4145 15.1808 14.7811 15.8146 14 15.8146C13.219 15.8146 12.5856 15.1808 12.5856 14.3987V9.74918C12.5856 8.96708 13.219 8.33327 14 8.33327Z" fill="#D9D9D9"/>
<path d="M14 8.33327C14.7811 8.33327 15.4145 8.96708 15.4145 9.74918V14.3987C15.4145 15.1808 14.7811 15.8146 14 15.8146C13.219 15.8146 12.5856 15.1808 12.5856 14.3987V9.74918C12.5856 8.96708 13.219 8.33327 14 8.33327Z" fill="black"/>
<path d="M14 8.33327C14.7811 8.33327 15.4145 8.96708 15.4145 9.74918V14.3987C15.4145 15.1808 14.7811 15.8146 14 15.8146C13.219 15.8146 12.5856 15.1808 12.5856 14.3987V9.74918C12.5856 8.96708 13.219 8.33327 14 8.33327Z" stroke="#D9D9D9" stroke-width="0.267857"/>
<path d="M14 8.33327C14.7811 8.33327 15.4145 8.96708 15.4145 9.74918V14.3987C15.4145 15.1808 14.7811 15.8146 14 15.8146C13.219 15.8146 12.5856 15.1808 12.5856 14.3987V9.74918C12.5856 8.96708 13.219 8.33327 14 8.33327Z" stroke="black" stroke-width="0.267857"/>
</svg>
