<svg width="20" height="24" viewBox="0 0 20 24" fill="none" xmlns="http://www.w3.org/2000/svg">
<path d="M10.2001 14.4C10.8601 14.4 11.4251 14.165 11.8951 13.695C12.3651 13.225 12.6001 12.66 12.6001 12C12.6001 11.34 12.3651 10.775 11.8951 10.305C11.4251 9.835 10.8601 9.6 10.2001 9.6C9.5401 9.6 8.9751 9.835 8.5051 10.305C8.0351 10.775 7.8001 11.34 7.8001 12C7.8001 12.66 8.0351 13.225 8.5051 13.695C8.9751 14.165 9.5401 14.4 10.2001 14.4ZM5.4001 19.2H15.0001V18.51C15.0001 18.03 14.8701 17.59 14.6101 17.19C14.3501 16.79 13.9901 16.49 13.5301 16.29C13.0101 16.07 12.4751 15.9 11.9251 15.78C11.3751 15.66 10.8001 15.6 10.2001 15.6C9.6001 15.6 9.0251 15.66 8.4751 15.78C7.9251 15.9 7.3901 16.07 6.8701 16.29C6.4101 16.49 6.0501 16.79 5.7901 17.19C5.5301 17.59 5.4001 18.03 5.4001 18.51V19.2ZM17.4001 24H3.0001C2.3401 24 1.7751 23.765 1.3051 23.295C0.835098 22.825 0.600098 22.26 0.600098 21.6V2.4C0.600098 1.74 0.835098 1.175 1.3051 0.705C1.7751 0.235 2.3401 0 3.0001 0H12.6001L19.8001 7.2V21.6C19.8001 22.26 19.5651 22.825 19.0951 23.295C18.6251 23.765 18.0601 24 17.4001 24ZM17.4001 21.6V8.22L11.5801 2.4H3.0001V21.6H17.4001Z" fill="#7A7A7A"/>
</svg>
