<svg width="22" height="24" viewBox="0 0 22 24" fill="none" xmlns="http://www.w3.org/2000/svg">
<path d="M2.4 24C1.74 24 1.175 23.765 0.705 23.295C0.235 22.825 0 22.26 0 21.6V4.8C0 4.14 0.235 3.575 0.705 3.105C1.175 2.635 1.74 2.4 2.4 2.4H3.6V0H6V2.4H15.6V0H18V2.4H19.2C19.86 2.4 20.425 2.635 20.895 3.105C21.365 3.575 21.6 4.14 21.6 4.8V21.6C21.6 22.26 21.365 22.825 20.895 23.295C20.425 23.765 19.86 24 19.2 24H2.4ZM2.4 21.6H19.2V9.6H2.4V21.6ZM2.4 7.2H19.2V4.8H2.4V7.2ZM10.8 14.4C10.46 14.4 10.175 14.285 9.945 14.055C9.715 13.825 9.6 13.54 9.6 13.2C9.6 12.86 9.715 12.575 9.945 12.345C10.175 12.115 10.46 12 10.8 12C11.14 12 11.425 12.115 11.655 12.345C11.885 12.575 12 12.86 12 13.2C12 13.54 11.885 13.825 11.655 14.055C11.425 14.285 11.14 14.4 10.8 14.4ZM6 14.4C5.66 14.4 5.375 14.285 5.145 14.055C4.915 13.825 4.8 13.54 4.8 13.2C4.8 12.86 4.915 12.575 5.145 12.345C5.375 12.115 5.66 12 6 12C6.34 12 6.625 12.115 6.855 12.345C7.085 12.575 7.2 12.86 7.2 13.2C7.2 13.54 7.085 13.825 6.855 14.055C6.625 14.285 6.34 14.4 6 14.4ZM15.6 14.4C15.26 14.4 14.975 14.285 14.745 14.055C14.515 13.825 14.4 13.54 14.4 13.2C14.4 12.86 14.515 12.575 14.745 12.345C14.975 12.115 15.26 12 15.6 12C15.94 12 16.225 12.115 16.455 12.345C16.685 12.575 16.8 12.86 16.8 13.2C16.8 13.54 16.685 13.825 16.455 14.055C16.225 14.285 15.94 14.4 15.6 14.4ZM10.8 19.2C10.46 19.2 10.175 19.085 9.945 18.855C9.715 18.625 9.6 18.34 9.6 18C9.6 17.66 9.715 17.375 9.945 17.145C10.175 16.915 10.46 16.8 10.8 16.8C11.14 16.8 11.425 16.915 11.655 17.145C11.885 17.375 12 17.66 12 18C12 18.34 11.885 18.625 11.655 18.855C11.425 19.085 11.14 19.2 10.8 19.2ZM6 19.2C5.66 19.2 5.375 19.085 5.145 18.855C4.915 18.625 4.8 18.34 4.8 18C4.8 17.66 4.915 17.375 5.145 17.145C5.375 16.915 5.66 16.8 6 16.8C6.34 16.8 6.625 16.915 6.855 17.145C7.085 17.375 7.2 17.66 7.2 18C7.2 18.34 7.085 18.625 6.855 18.855C6.625 19.085 6.34 19.2 6 19.2ZM15.6 19.2C15.26 19.2 14.975 19.085 14.745 18.855C14.515 18.625 14.4 18.34 14.4 18C14.4 17.66 14.515 17.375 14.745 17.145C14.975 16.915 15.26 16.8 15.6 16.8C15.94 16.8 16.225 16.915 16.455 17.145C16.685 17.375 16.8 17.66 16.8 18C16.8 18.34 16.685 18.625 16.455 18.855C16.225 19.085 15.94 19.2 15.6 19.2Z" fill="#7A7A7A"/>
</svg>
